# xmcd
#
# Track frame offsets:
# 150
# 21165
# 35981
# 75011
# 90554
# 110325
# 127637
# 144204
# 161655
# 186537
# 203849
# 219936
# 238294
# 253065
# 269139
#
# Disc length: 3777 seconds
#
#
# Revision: 0
# Processed by: cddbd v1.5.2PL0 Copyright (c) Steve Scherf et al.
# Submitted via: FreeRIP 2.70 
#
DISCID=cf0ebf0f
DTITLE=216 Von Josef - 216 Von Josef
DYEAR=1900
DGENRE=A Cappella
TTITLE0=De Laatbleujers     Das Jungfrauhenchor
TTITLE1=Höhner     Wenn nicht jetzt wann dann
TTITLE2=XXXXX     XXXXXXXXXX
TTITLE3=Fantasy     Geh mit ihm
TTITLE4=Hansi Süssenbach     Nur für eine Nacht mit dir
TTITLE5=Malu     Seemann, lass das Träumen
TTITLE6=Dj Ötzi     Hey Baby
TTITLE7=Die Zipfelbuben     Der Teufel und der junge Mann
TTITLE8=Weather Girls     Its Raiming Men
TTITLE9=Right Said Fred     Love Song
TTITLE10=Claudia Jung     Wenn er nachts Piano Spielt
TTITLE11=Die Zipfelbuben     Kedeng, Kedeng
TTITLE12=Jürgen Redfordt     Ich bin da
TTITLE13=Helene Fischer     Mitten im Paradies
TTITLE14=GG Anderson     Hast du Lust
EXTD=
EXTT0=
EXTT1=
EXTT2=
EXTT3=
EXTT4=
EXTT5=
EXTT6=
EXTT7=
EXTT8=
EXTT9=
EXTT10=
EXTT11=
EXTT12=
EXTT13=
EXTT14=
PLAYORDER=
